<?xml version="1.0" standalone="no"?>
<!DOCTYPE svg PUBLIC "-//W3C//DTD SVG 20010904//EN"
 "http://www.w3.org/TR/2001/REC-SVG-20010904/DTD/svg10.dtd">
<svg version="1.0" xmlns="http://www.w3.org/2000/svg"
 width="32.000000pt" height="32.000000pt" viewBox="0 0 32.000000 32.000000"
 preserveAspectRatio="xMidYMid meet">

<g transform="translate(0.000000,32.000000) scale(0.100000,-0.100000)"
fill="#000000" stroke="none">
<path d="M42 158 l3 -73 39 -3 c21 -2 43 1 49 7 8 8 0 11 -26 11 l-37 0 0 65
c0 52 -3 65 -15 65 -13 0 -15 -13 -13 -72z"/>
<path d="M190 155 c0 -43 4 -75 10 -75 6 0 10 16 10 35 0 32 2 35 30 35 17 0
30 5 30 10 0 6 -13 10 -30 10 -23 0 -30 4 -30 20 0 16 7 20 35 20 19 0 35 5
35 10 0 6 -20 10 -45 10 l-45 0 0 -75z"/>
</g>
</svg>
